<mxfile host="app.diagrams.net" agent="Mozilla/5.0 (Windows NT 10.0; Win64; x64) AppleWebKit/537.36 (KHTML, like Gecko) Chrome/136.0.0.0 Safari/537.36" version="27.0.9">
  <diagram name="Страница — 1" id="XZYeAlCMPjUM97VyEqtC">
    <mxGraphModel dx="1026" dy="751" grid="0" gridSize="10" guides="1" tooltips="1" connect="1" arrows="1" fold="1" page="0" pageScale="1" pageWidth="827" pageHeight="1169" math="0" shadow="0">
      <root>
        <mxCell id="0" />
        <mxCell id="1" parent="0" />
        <mxCell id="nsbjW631ecnLqBV5j18X-1" value="" style="rounded=0;whiteSpace=wrap;html=1;" vertex="1" parent="1">
          <mxGeometry x="647" y="260" width="955" height="572" as="geometry" />
        </mxCell>
        <mxCell id="nsbjW631ecnLqBV5j18X-2" value="Пользователь" style="shape=umlActor;verticalLabelPosition=bottom;verticalAlign=top;html=1;outlineConnect=0;fontSize=15;" vertex="1" parent="1">
          <mxGeometry x="480" y="517" width="30" height="60" as="geometry" />
        </mxCell>
        <mxCell id="nsbjW631ecnLqBV5j18X-3" value="Просмотр пунктов приема" style="ellipse;whiteSpace=wrap;html=1;fontSize=15;" vertex="1" parent="1">
          <mxGeometry x="922" y="310" width="162" height="63" as="geometry" />
        </mxCell>
        <mxCell id="nsbjW631ecnLqBV5j18X-4" value="Обмен баллов на скидки в сервисах" style="ellipse;whiteSpace=wrap;html=1;fontSize=15;" vertex="1" parent="1">
          <mxGeometry x="1376" y="391" width="164" height="52" as="geometry" />
        </mxCell>
        <mxCell id="nsbjW631ecnLqBV5j18X-5" value="Просмотр статей" style="ellipse;whiteSpace=wrap;html=1;fontSize=15;" vertex="1" parent="1">
          <mxGeometry x="756.5" y="284" width="135" height="30" as="geometry" />
        </mxCell>
        <mxCell id="nsbjW631ecnLqBV5j18X-6" value="Отметка сдачи вторсырья" style="ellipse;whiteSpace=wrap;html=1;fontSize=15;" vertex="1" parent="1">
          <mxGeometry x="743" y="718" width="218" height="59" as="geometry" />
        </mxCell>
        <mxCell id="nsbjW631ecnLqBV5j18X-7" value="Удаление статьи" style="ellipse;whiteSpace=wrap;html=1;fontSize=15;" vertex="1" parent="1">
          <mxGeometry x="1330.5" y="604" width="130" height="40" as="geometry" />
        </mxCell>
        <mxCell id="nsbjW631ecnLqBV5j18X-8" value="Изменение статьи" style="ellipse;whiteSpace=wrap;html=1;fontSize=15;" vertex="1" parent="1">
          <mxGeometry x="1250" y="544" width="140" height="40" as="geometry" />
        </mxCell>
        <mxCell id="nsbjW631ecnLqBV5j18X-9" value="Добавление статьи" style="ellipse;whiteSpace=wrap;html=1;fontSize=15;" vertex="1" parent="1">
          <mxGeometry x="1168.5" y="474" width="147" height="50" as="geometry" />
        </mxCell>
        <mxCell id="nsbjW631ecnLqBV5j18X-10" value="Добавление отметки&lt;div&gt;&quot;Нравится&quot;&lt;/div&gt;" style="ellipse;whiteSpace=wrap;html=1;fontSize=15;" vertex="1" parent="1">
          <mxGeometry x="1261" y="653" width="171" height="59" as="geometry" />
        </mxCell>
        <mxCell id="nsbjW631ecnLqBV5j18X-11" value="Удаление комментария" style="ellipse;whiteSpace=wrap;html=1;fontSize=15;" vertex="1" parent="1">
          <mxGeometry x="988" y="704" width="130" height="43" as="geometry" />
        </mxCell>
        <mxCell id="nsbjW631ecnLqBV5j18X-12" value="Добавление комментария" style="ellipse;whiteSpace=wrap;html=1;fontSize=15;" vertex="1" parent="1">
          <mxGeometry x="1123" y="681" width="130" height="40" as="geometry" />
        </mxCell>
        <mxCell id="nsbjW631ecnLqBV5j18X-13" value="Просмотр скидок" style="ellipse;whiteSpace=wrap;html=1;fontSize=15;" vertex="1" parent="1">
          <mxGeometry x="1062" y="389" width="169" height="56" as="geometry" />
        </mxCell>
        <mxCell id="nsbjW631ecnLqBV5j18X-14" value="&amp;lt;&amp;lt;расширить&amp;gt;&amp;gt;" style="html=1;verticalAlign=bottom;labelBackgroundColor=none;endArrow=open;endFill=0;dashed=1;rounded=0;exitX=0;exitY=0.5;exitDx=0;exitDy=0;entryX=1;entryY=0.5;entryDx=0;entryDy=0;" edge="1" parent="1" source="nsbjW631ecnLqBV5j18X-4" target="nsbjW631ecnLqBV5j18X-13">
          <mxGeometry x="0.0033" width="160" relative="1" as="geometry">
            <mxPoint x="1067" y="881" as="sourcePoint" />
            <mxPoint x="1227" y="881" as="targetPoint" />
            <mxPoint as="offset" />
          </mxGeometry>
        </mxCell>
        <mxCell id="nsbjW631ecnLqBV5j18X-15" value="" style="endArrow=classic;html=1;rounded=0;fontSize=15;entryX=0;entryY=0.5;entryDx=0;entryDy=0;exitX=1;exitY=0.3333333333333333;exitDx=0;exitDy=0;exitPerimeter=0;endFill=1;" edge="1" parent="1" source="nsbjW631ecnLqBV5j18X-2" target="nsbjW631ecnLqBV5j18X-6">
          <mxGeometry width="50" height="50" relative="1" as="geometry">
            <mxPoint x="359" y="105" as="sourcePoint" />
            <mxPoint x="328" y="4" as="targetPoint" />
          </mxGeometry>
        </mxCell>
        <mxCell id="nsbjW631ecnLqBV5j18X-16" value="" style="endArrow=none;html=1;rounded=0;entryX=1;entryY=0.3333333333333333;entryDx=0;entryDy=0;entryPerimeter=0;fontSize=15;exitX=0;exitY=0.5;exitDx=0;exitDy=0;startArrow=classic;startFill=1;" edge="1" parent="1" source="nsbjW631ecnLqBV5j18X-5" target="nsbjW631ecnLqBV5j18X-2">
          <mxGeometry width="50" height="50" relative="1" as="geometry">
            <mxPoint x="-159.31578947368416" y="204" as="sourcePoint" />
            <mxPoint x="370" y="517" as="targetPoint" />
          </mxGeometry>
        </mxCell>
        <mxCell id="nsbjW631ecnLqBV5j18X-17" value="" style="endArrow=classic;html=1;rounded=0;entryX=0;entryY=0.5;entryDx=0;entryDy=0;fontSize=15;exitX=1;exitY=0.3333333333333333;exitDx=0;exitDy=0;exitPerimeter=0;endFill=1;" edge="1" parent="1" source="nsbjW631ecnLqBV5j18X-2" target="nsbjW631ecnLqBV5j18X-7">
          <mxGeometry width="50" height="50" relative="1" as="geometry">
            <mxPoint x="599" y="325" as="sourcePoint" />
            <mxPoint x="568" y="224" as="targetPoint" />
          </mxGeometry>
        </mxCell>
        <mxCell id="nsbjW631ecnLqBV5j18X-18" value="" style="endArrow=classic;html=1;rounded=0;entryX=0;entryY=0.5;entryDx=0;entryDy=0;fontSize=15;exitX=1;exitY=0.3333333333333333;exitDx=0;exitDy=0;exitPerimeter=0;endFill=1;" edge="1" parent="1" source="nsbjW631ecnLqBV5j18X-2" target="nsbjW631ecnLqBV5j18X-8">
          <mxGeometry width="50" height="50" relative="1" as="geometry">
            <mxPoint x="395" y="201" as="sourcePoint" />
            <mxPoint x="364" y="100" as="targetPoint" />
          </mxGeometry>
        </mxCell>
        <mxCell id="nsbjW631ecnLqBV5j18X-19" value="" style="endArrow=classic;html=1;rounded=0;entryX=0;entryY=0.5;entryDx=0;entryDy=0;fontSize=15;exitX=1;exitY=0.3333333333333333;exitDx=0;exitDy=0;exitPerimeter=0;endFill=1;" edge="1" parent="1" source="nsbjW631ecnLqBV5j18X-2" target="nsbjW631ecnLqBV5j18X-11">
          <mxGeometry width="50" height="50" relative="1" as="geometry">
            <mxPoint x="395" y="201" as="sourcePoint" />
            <mxPoint x="364" y="100" as="targetPoint" />
          </mxGeometry>
        </mxCell>
        <mxCell id="nsbjW631ecnLqBV5j18X-20" value="" style="endArrow=classic;html=1;rounded=0;entryX=0;entryY=0.5;entryDx=0;entryDy=0;fontSize=15;exitX=1;exitY=0.3333333333333333;exitDx=0;exitDy=0;exitPerimeter=0;endFill=1;" edge="1" parent="1" source="nsbjW631ecnLqBV5j18X-2" target="nsbjW631ecnLqBV5j18X-13">
          <mxGeometry width="50" height="50" relative="1" as="geometry">
            <mxPoint x="571" y="454" as="sourcePoint" />
            <mxPoint x="540" y="353" as="targetPoint" />
          </mxGeometry>
        </mxCell>
        <mxCell id="nsbjW631ecnLqBV5j18X-21" value="" style="endArrow=classic;html=1;rounded=0;entryX=0;entryY=0.5;entryDx=0;entryDy=0;fontSize=15;exitX=1;exitY=0.3333333333333333;exitDx=0;exitDy=0;exitPerimeter=0;endFill=1;" edge="1" parent="1" source="nsbjW631ecnLqBV5j18X-2" target="nsbjW631ecnLqBV5j18X-9">
          <mxGeometry width="50" height="50" relative="1" as="geometry">
            <mxPoint x="430" y="247" as="sourcePoint" />
            <mxPoint x="399" y="146" as="targetPoint" />
          </mxGeometry>
        </mxCell>
        <mxCell id="nsbjW631ecnLqBV5j18X-22" value="" style="endArrow=classic;html=1;rounded=0;entryX=0;entryY=0.5;entryDx=0;entryDy=0;fontSize=15;exitX=1;exitY=0.3333333333333333;exitDx=0;exitDy=0;exitPerimeter=0;endFill=1;" edge="1" parent="1" source="nsbjW631ecnLqBV5j18X-2" target="nsbjW631ecnLqBV5j18X-10">
          <mxGeometry width="50" height="50" relative="1" as="geometry">
            <mxPoint x="608" y="358" as="sourcePoint" />
            <mxPoint x="577" y="257" as="targetPoint" />
          </mxGeometry>
        </mxCell>
        <mxCell id="nsbjW631ecnLqBV5j18X-23" value="" style="endArrow=classic;html=1;rounded=0;entryX=0;entryY=0.5;entryDx=0;entryDy=0;fontSize=15;exitX=1;exitY=0.3333333333333333;exitDx=0;exitDy=0;exitPerimeter=0;endFill=1;" edge="1" parent="1" source="nsbjW631ecnLqBV5j18X-2" target="nsbjW631ecnLqBV5j18X-12">
          <mxGeometry width="50" height="50" relative="1" as="geometry">
            <mxPoint x="589" y="299" as="sourcePoint" />
            <mxPoint x="558" y="198" as="targetPoint" />
          </mxGeometry>
        </mxCell>
        <mxCell id="nsbjW631ecnLqBV5j18X-24" value="" style="endArrow=none;html=1;rounded=0;entryX=1;entryY=0.3333333333333333;entryDx=0;entryDy=0;entryPerimeter=0;fontSize=15;exitX=0;exitY=0.5;exitDx=0;exitDy=0;startArrow=classic;startFill=1;" edge="1" parent="1" source="nsbjW631ecnLqBV5j18X-3" target="nsbjW631ecnLqBV5j18X-2">
          <mxGeometry width="50" height="50" relative="1" as="geometry">
            <mxPoint x="547" y="314" as="sourcePoint" />
            <mxPoint x="516" y="213" as="targetPoint" />
          </mxGeometry>
        </mxCell>
      </root>
    </mxGraphModel>
  </diagram>
</mxfile>
